<svg width="16" height="16" version="1.1" viewBox="0 0 4.2333 4.2333" xmlns="http://www.w3.org/2000/svg" xmlns:xlink="http://www.w3.org/1999/xlink">
<defs>
<linearGradient id="a" x1="2.1167" x2="2.1167" y1=".92604" y2="1.9844" gradientUnits="userSpaceOnUse">
<stop stop-color="#6c5d53" offset="0"/>
<stop stop-color="#483e37" offset="1"/>
</linearGradient>
<filter id="b" x="-.034286" y="-.033104" width="1.0686" height="1.0662" color-interpolation-filters="sRGB">
<feGaussianBlur result="blur" stdDeviation="0.2 0.2"/>
</filter>
</defs>
<path transform="matrix(.26458 0 0 .26458 8e-8 .066086)" d="m6.5586 0.50391a0.50005 0.50005 0 0 0-0.28125 0.048828l-5 2.5a0.50005 0.50005 0 0 0-0.27734 0.44727v11a0.50005 0.50005 0 0 0 0.5 0.5h13a0.50005 0.50005 0 0 0 0.5-0.5v-11a0.50005 0.50005 0 0 0-0.27734-0.44727l-5-2.5a0.50005 0.50005 0 0 0-0.72266 0.44727v2h-2v-2a0.50005 0.50005 0 0 0-0.44141-0.49609z" color="#000000" filter="url(#b)" opacity=".5" stroke-linejoin="round" style="-inkscape-stroke:none"/>
<path d="m0.39688 1.9844 3.4396 1e-7v-1.0583l-3.4396-4e-8z" fill="url(#a)" stroke="#483e37" stroke-linejoin="round" stroke-width=".26458"/>
<g fill="#e9c6af">
<path d="m3.8365 1.9844h-3.4396v1.8521l3.4396 1e-7z" stroke="#917c6f" stroke-linecap="round" stroke-linejoin="round" stroke-width=".26458"/>
<path d="m3.8365 1.9844v-1.0583l-1.3229-0.66146v1.0583z"/>
<path d="m0.39688 1.9844v-1.0583l1.3229-0.66146v1.0583z"/>
</g>
<g fill="none">
<g stroke="#deaa87" stroke-width=".26458px">
<path d="m1.7198 0.52917-1.3229 0.66146"/>
<path d="m0.92604 2.1167v1.5875"/>
<path d="m1.4552 2.1167v1.5875"/>
<path d="m1.9844 2.1167v1.5875"/>
<path d="m2.5135 2.1167v1.5875"/>
<path d="m3.0427 2.1167v1.5875"/>
<path d="m3.5719 2.1167v1.5875"/>
<path d="m2.5135 0.52917 1.3229 0.66146"/>
<path d="m2.5135 1.0583 1.3229 0.66146"/>
</g>
<path d="m3.8365 1.9844v-1.0583l-1.3229-0.66146v1.0583z" stroke="#917c6f" stroke-linecap="round" stroke-linejoin="round" stroke-width=".26458"/>
<path d="m1.7198 1.0583-1.3229 0.66146" stroke="#deaa87" stroke-width=".26458px"/>
<path d="m0.39688 1.9844v-1.0583l1.3229-0.66146v1.0583z" stroke="#917c6f" stroke-linecap="round" stroke-linejoin="round" stroke-width=".26458"/>
</g>
</svg>
